<svg xmlns="http://www.w3.org/2000/svg" width="32" height="32" viewBox="0 0 32 32" fill="none">
  <rect width="32" height="32" rx="8" fill="url(#gradient)"/>
  <path d="M16 6C13 6 11 8 11 11C11 13.5 12 14.5 14 16C10 17 8 19 8 22C8 25 10 26 13 26H19C22 26 24 25 24 22C24 19 22 17 18 16C20 14.5 21 13.5 21 11C21 8 19 6 16 6Z" fill="white" fill-opacity="0.9"/>
  <defs>
    <linearGradient id="gradient" x1="0" y1="0" x2="32" y2="32">
      <stop stop-color="#7C3AED"/>
      <stop offset="1" stop-color="#4F46E5"/>
    </linearGradient>
  </defs>
</svg>
